<svg width="149" height="292" viewBox="0 0 149 292" fill="none" xmlns="http://www.w3.org/2000/svg">
<path d="M-233.646 171.377L24.1762 33.2332C57.0357 15.6266 97.9466 27.9917 115.553 60.8512C133.16 93.7108 120.795 134.622 87.9351 152.228L-169.887 290.372L-233.646 171.377Z" stroke="#171717" stroke-width="2"/>
<path d="M25.136 104.961L33.6685 119.27C33.7622 119.427 33.8277 119.599 33.8622 119.779C34.0773 120.9 33.0641 121.869 31.9539 121.605L26.164 120.225L24.129 105.314C24.0994 105.097 24.202 104.884 24.3895 104.773C24.6478 104.619 24.982 104.703 25.136 104.961Z" stroke="#171717" stroke-width="2"/>
<path d="M60.0916 168.521L85.846 153.652C87.3623 170.73 89.8773 184.231 94.7173 195.796C99.7142 207.736 107.166 217.558 118.446 227.125C125.851 233.405 125.496 245.28 117.28 250.023C112.7 252.668 106.95 252.221 102.978 248.785C89.6099 237.219 80.3644 226.764 73.7115 214.346C67.1323 202.065 63.0539 187.798 60.0916 168.521Z" stroke="#171717" stroke-width="2"/>
<path d="M60.5977 55.8979C61.9372 58.6276 62.3692 61.4332 62.0311 63.739C61.6922 66.0502 60.6067 67.7551 59.0047 68.5413C57.4026 69.3274 55.3899 69.1429 53.3545 67.9968C51.3238 66.8534 49.369 64.7952 48.0294 62.0654C46.6899 59.3357 46.2579 56.5302 46.596 54.2244C46.9349 51.9132 48.0204 50.2082 49.6224 49.4221C51.2245 48.6359 53.2372 48.8205 55.2726 49.9665C57.3033 51.1099 59.2581 53.1682 60.5977 55.8979Z" stroke="#171717" stroke-width="2"/>
<path d="M57.7566 63.8876C57.6559 64.2634 57.3098 64.6557 56.6083 64.8982C55.9133 65.1384 54.9717 65.1833 53.9661 64.9138C52.9605 64.6444 52.1676 64.1347 51.6858 63.5792C51.1995 63.0185 51.0959 62.5056 51.1966 62.1299C51.2973 61.7541 51.6434 61.3617 52.3449 61.1193C53.0399 60.8791 53.9815 60.8342 54.9871 61.1036C55.9927 61.3731 56.7857 61.8828 57.2674 62.4383C57.7537 62.999 57.8573 63.5118 57.7566 63.8876Z" stroke="#171717" stroke-width="2"/>
<path d="M86.8034 105.87C86.7018 106.249 86.3555 106.642 85.6613 106.884C84.973 107.125 84.0409 107.172 83.0461 106.905C82.0512 106.639 81.2673 106.132 80.7916 105.58C80.3118 105.022 80.2081 104.509 80.3098 104.13C80.4114 103.751 80.7577 103.358 81.4518 103.116C82.1402 102.875 83.0722 102.828 84.0671 103.095C85.062 103.361 85.8458 103.868 86.3216 104.42C86.8014 104.978 86.9051 105.491 86.8034 105.87Z" stroke="#171717" stroke-width="2"/>
<path d="M91.5977 105.898C92.9372 108.628 93.3692 111.433 93.0311 113.739C92.6922 116.05 91.6067 117.755 90.0047 118.541C88.4026 119.327 86.3899 119.143 84.3545 117.997C82.3238 116.853 80.369 114.795 79.0294 112.065C77.6899 109.336 77.2579 106.53 77.596 104.224C77.9349 101.913 79.0204 100.208 80.6224 99.4221C82.2245 98.6359 84.2372 98.8205 86.2726 99.9665C88.3033 101.11 90.2581 103.168 91.5977 105.898Z" stroke="#171717" stroke-width="2"/>
</svg>
